<svg width="12" height="7" viewBox="0 0 12 7" fill="none" xmlns="http://www.w3.org/2000/svg">
<path d="M11.5306 1.53025L6.5306 6.53025C6.46092 6.60017 6.37813 6.65564 6.28696 6.6935C6.1958 6.73135 6.09806 6.75084 5.99935 6.75084C5.90064 6.75084 5.8029 6.73135 5.71173 6.6935C5.62057 6.65564 5.53778 6.60017 5.4681 6.53025L0.468098 1.53025C0.327202 1.38935 0.248047 1.19825 0.248047 0.998996C0.248047 0.799739 0.327202 0.608643 0.468098 0.467746C0.608994 0.32685 0.800091 0.247695 0.999348 0.247695C1.19861 0.247695 1.3897 0.32685 1.5306 0.467746L5.99997 4.93712L10.4693 0.467122C10.6102 0.326225 10.8013 0.24707 11.0006 0.24707C11.1999 0.24707 11.391 0.326225 11.5318 0.467122C11.6727 0.608018 11.7519 0.799114 11.7519 0.998372C11.7519 1.19763 11.6727 1.38873 11.5318 1.52962L11.5306 1.53025Z" fill="black" fill-opacity="0.5"/>
</svg>
