<svg class="_card-emission__areas-item-icon_qv6x1_859" width="2rem" height="2rem" viewBox="0 0 1024 1024" xmlns="http://www.w3.org/2000/svg" style="display: inline-block; vertical-align: middle;"><path d="M512 1024c-282.77 0-512-229.231-512-512s229.23-512 512-512c282.769 0 512 229.23 512 512s-229.231 512-512 512zM353.606 308.372c-12.497-12.497-32.758-12.497-45.255 0s-12.497 32.758 0 45.255l158.375 158.373-158.375 158.374c-12.497 12.497-12.497 32.755 0 45.252s32.758 12.497 45.255 0l158.372-158.37 158.413 158.409c12.497 12.497 32.755 12.497 45.252 0s12.497-32.755 0-45.252l-158.409-158.413 158.409-158.411c12.497-12.497 12.497-32.758 0-45.255s-32.755-12.497-45.252 0l-158.413 158.409-158.372-158.371z" style="fill: rgb(240, 68, 56);"></path></svg>