<svg class="_card-emission__areas-item-icon_qv6x1_859" width="2rem" height="2rem" viewBox="0 0 1024 1024" xmlns="http://www.w3.org/2000/svg" style="display: inline-block; vertical-align: middle;"><path d="M1024 512c0 282.769-229.231 512-512 512s-512-229.231-512-512c0-282.77 229.23-512 512-512s512 229.23 512 512zM705.297 420.809c12.497-12.497 12.497-32.758 0-45.255s-32.759-12.497-45.257 0l-204.928 204.93-91.15-91.153c-12.497-12.497-32.758-12.497-45.255 0s-12.497 32.759 0 45.257l113.779 113.775c12.497 12.497 32.755 12.497 45.252 0l227.558-227.553z" style="fill: rgb(59, 196, 132);"></path></svg>