<svg class="" width="2.5rem" height="2.5rem" viewBox="0 0 1152 1024" xmlns="http://www.w3.org/2000/svg" style="display: inline-block; vertical-align: middle;"><path d="M478.019 645.404c56.788 4.301 114.875-4.367 170.501-31.949 61.775-30.515 92.869-74.819 91.776-102.74-0.957-24.166-28.088-40.005-50.706-49.083-50.98-20.344-90.888-20.754-122.186-1.162-56.036 35.159-80.98 129.024-89.385 184.934zM473.508 753.267c4.17 70.382 25.49 136.806 86.31 156.262 112.346 35.976 310.454-83.558 407.764-246.034 117.335-195.858 27.812-328.43-36.014-390.008-185.124-178.516-422.866-188.005-583.662-137.42-127.585 40.141-220.66 120.217-236.992 204.118-15.376 78.779 41.002 144.52 91.024 185.754 47.426 39.183 106.127 74.547 169.886 96.666 10.796-67.653 43.052-194.015 137.628-253.612 61.844-39.048 136.059-41.644 220.454-7.852 99.84 39.936 117.197 108.134 118.702 145.272 3.075 77.893-55.148 156.127-151.913 203.981-65.876 32.632-144.054 47.444-223.119 42.872h-0.069zM603.075 1024.013c-26.924 0-52.618-3.756-76.332-11.402-128.814-41.3-159.567-172.099-162.028-277.844-80.364-22.597-157.993-64.581-231.728-125.407-102.71-84.649-148.359-187.663-128.405-289.859 24.191-124.11 143.234-233.95 310.728-286.652 190.523-59.938 472.205-48.674 691.43 162.816 147.948 142.745 167.493 333.482 53.78 523.401-57.062 95.299-145.695 182.339-243.075 238.932-74.964 43.553-148.7 65.946-214.441 65.946l0.069 0.069z" style="fill: rgb(255, 255, 255);"></path></svg>