<svg class="" width="16" height="16" viewBox="0 0 1024 1024" xmlns="http://www.w3.org/2000/svg" style="display: inline-block; vertical-align: middle;"><path d="M96 512c0-229.75 186.25-416 416-416 229.754 0 416 186.25 416 416 0 229.754-186.246 416-416 416-229.75 0-416-186.246-416-416zM864 512c0-194.404-157.594-352-352-352-194.404 0-352 157.596-352 352 0 194.406 157.596 352 352 352 194.406 0 352-157.594 352-352zM512 693.331c16.2 0 29.589 12.038 31.708 27.661l0.292 4.768c0 17.67-14.327 32-32 32-16.2 0-29.589-12.038-31.708-27.661l-0.292-4.768c0-17.67 14.327-32 32-32zM558.774 272.363c-57.754-18.561-120.934 1.357-157.601 49.686-10.682 14.079-7.928 34.152 6.152 44.835s34.152 7.928 44.835-6.152c20.249-26.689 55.139-37.688 87.034-27.438s53.844 39.516 54.754 73.005c0.909 33.489-19.42 63.903-50.71 75.869-39.514 13.882-65.606 53.021-63.185 95.701 1.001 17.645 16.116 31.137 33.761 30.136s31.137-16.116 30.136-33.761l0.077-4.689c1.108-12.334 9.308-23.109 21.257-27.311 57.476-21.967 94.289-77.043 92.638-137.684-1.645-60.641-41.391-113.637-99.146-132.198z" fill="rgb(62, 17, 96)" style="fill: rgb(61, 17, 95);"></path></svg>