<svg xmlns="http://www.w3.org/2000/svg" width="32" height="32" viewBox="0 0 32 32" fill="none">
<path fill-rule="evenodd" clip-rule="evenodd" d="M16 32C24.8366 32 32 24.8366 32 16C32 7.16344 24.8366 0 16 0C7.16344 0 0 7.16344 0 16C0 24.8366 7.16344 32 16 32Z" fill="#F5BD36"/>
<path fill-rule="evenodd" clip-rule="evenodd" d="M17.5204 8.1892C17.4228 7.46909 16.8055 6.91406 16.0586 6.91406C15.2438 6.91406 14.5833 7.57459 14.5833 8.38939V18.1745L14.5967 18.3747C14.6944 19.0948 15.3117 19.6498 16.0586 19.6498C16.8734 19.6498 17.5339 18.9893 17.5339 18.1745V8.38939L17.5204 8.1892ZM17.5536 24.127C17.5536 23.3122 16.8931 22.6517 16.0783 22.6517L15.8584 22.6652C15.1383 22.7629 14.5833 23.3801 14.5833 24.127C14.5833 24.9418 15.2438 25.6023 16.0586 25.6023L16.2784 25.5889C16.9986 25.4912 17.5536 24.8739 17.5536 24.127Z" fill="white"/>
</svg>